<svg width="54" height="57" viewBox="0 0 54 57" fill="none" xmlns="http://www.w3.org/2000/svg">
<path d="M27 0C24.0333 0 21.1332 0.879734 18.6664 2.52796C16.1997 4.17618 14.2771 6.51886 13.1418 9.25975C12.0065 12.0006 11.7094 15.0166 12.2882 17.9264C12.867 20.8361 14.2956 23.5088 16.3934 25.6066C18.4912 27.7044 21.1639 29.133 24.0736 29.7118C26.9834 30.2906 29.9994 29.9935 32.7402 28.8582C35.4811 27.7229 37.8238 25.8003 39.472 23.3336C41.1203 20.8668 42 17.9667 42 15C42 11.0218 40.4196 7.20644 37.6066 4.3934C34.7936 1.58035 30.9782 0 27 0ZM27 24C25.22 24 23.4799 23.4722 21.9999 22.4832C20.5198 21.4943 19.3663 20.0887 18.6851 18.4441C18.0039 16.7996 17.8257 14.99 18.1729 13.2442C18.5202 11.4984 19.3774 9.89471 20.636 8.63604C21.8947 7.37737 23.4984 6.5202 25.2442 6.17293C26.99 5.82567 28.7996 6.0039 30.4442 6.68508C32.0887 7.36627 33.4943 8.51982 34.4832 9.99987C35.4722 11.4799 36 13.22 36 15C36 17.3869 35.0518 19.6761 33.364 21.364C31.6761 23.0518 29.3869 24 27 24ZM54 57V54C54 48.4305 51.7875 43.089 47.8492 39.1508C43.911 35.2125 38.5695 33 33 33H21C15.4305 33 10.089 35.2125 6.15076 39.1508C2.21249 43.089 0 48.4305 0 54V57H6V54C6 50.0217 7.58035 46.2064 10.3934 43.3934C13.2064 40.5803 17.0218 39 21 39H33C36.9782 39 40.7936 40.5803 43.6066 43.3934C46.4196 46.2064 48 50.0217 48 54V57H54Z" fill="white"/>
</svg>
